<svg width="131" height="27" fill="none" xmlns="http://www.w3.org/2000/svg"><path d="M6.272.8H.44V26H4.4v-9.468h1.872c3.96 0 5.904-2.196 5.904-6.228V7.028C12.176 2.996 10.232.8 6.272.8zm0 3.6c1.26 0 1.944.576 1.944 2.376v3.78c0 1.8-.684 2.376-1.944 2.376H4.4V4.4h1.872zm13.71 2.196c0-1.8.792-2.484 2.052-2.484s2.052.684 2.052 2.484v13.608c0 1.8-.792 2.484-2.052 2.484s-2.052-.684-2.052-2.484V6.596zm-3.96 13.356c0 4.032 2.124 6.336 6.012 6.336 3.888 0 6.012-2.304 6.012-6.336V6.848c0-4.032-2.124-6.336-6.012-6.336-3.888 0-6.012 2.304-6.012 6.336v13.104zM31.628 4.4h4.14V26h3.96V4.4h4.14V.8h-12.24v3.6zM60.084 26c-.396-.936-.432-1.836-.432-3.06v-3.888c0-2.628-.648-4.536-2.628-5.364 1.764-.828 2.592-2.52 2.592-5.112v-1.98C59.616 2.708 57.852.8 53.748.8h-5.976V26h3.96V15.74H53.1c1.8 0 2.592.864 2.592 3.204v3.96c0 2.052.144 2.448.36 3.096h4.032zM53.64 4.4c1.404 0 2.016.792 2.016 2.592v2.484c0 2.016-.9 2.664-2.376 2.664h-1.548V4.4h1.908zM77.998.8h-5.832V26h3.96v-9.468h1.872c3.96 0 5.904-2.196 5.904-6.228V7.028C83.902 2.996 81.958.8 77.998.8zm0 3.6c1.26 0 1.944.576 1.944 2.376v3.78c0 1.8-.684 2.376-1.944 2.376h-1.872V4.4h1.872zm13.71 2.196c0-1.8.792-2.484 2.052-2.484s2.052.684 2.052 2.484v13.608c0 1.8-.792 2.484-2.052 2.484s-2.052-.684-2.052-2.484V6.596zm-3.96 13.356c0 4.032 2.124 6.336 6.012 6.336 3.888 0 6.012-2.304 6.012-6.336V6.848c0-4.032-2.124-6.336-6.012-6.336-3.888 0-6.012 2.304-6.012 6.336v13.104zM103.353 4.4h4.14V26h3.96V4.4h4.14V.8h-12.24v3.6zm15.64 2.448c0 7.2 7.74 8.172 7.74 13.356 0 1.8-.792 2.448-2.052 2.448s-2.052-.648-2.052-2.448v-1.8h-3.744v1.548c0 4.032 2.016 6.336 5.904 6.336s5.904-2.304 5.904-6.336c0-7.2-7.74-8.172-7.74-13.356 0-1.8.72-2.484 1.98-2.484s1.98.684 1.98 2.484V7.64h3.744v-.792c0-4.032-1.98-6.336-5.832-6.336s-5.832 2.304-5.832 6.336z" fill="#333"/></svg>